<?xml version="1.0" encoding="UTF-8" standalone="no"?>
<svg
   xmlns:dc="http://purl.org/dc/elements/1.1/"
   xmlns:cc="http://creativecommons.org/ns#"
   xmlns:rdf="http://www.w3.org/1999/02/22-rdf-syntax-ns#"
   xmlns:svg="http://www.w3.org/2000/svg"
   xmlns="http://www.w3.org/2000/svg"
   width="140.26335mm"
   height="36.413219mm"
   viewBox="0 0 140.26335 36.413219"
   version="1.1"
   id="svg1026">
  <defs
     id="defs1020">
    <linearGradient
       gradientUnits="userSpaceOnUse"
       gradientTransform="scale(1.0000836,0.9999164)"
       id="linearGradientSke8x21bd189"
       y2="6.8905759"
       x2="30.97541"
       y1="6.8905759"
       x1="19.012409">
      <stop
         id="stop1384"
         stop-color="#f7b801"
         offset="0%" />
      <stop
         id="stop1386"
         stop-color="#f7b801"
         offset="100%" />
    </linearGradient>
    <linearGradient
       gradientUnits="userSpaceOnUse"
       gradientTransform="scale(1.0000836,0.9999164)"
       id="linearGradientSke8x21bd18c"
       y2="41.122437"
       x2="30.97541"
       y1="41.122437"
       x1="19.012409">
      <stop
         id="stop1389"
         stop-color="#f7b801"
         offset="0%" />
      <stop
         id="stop1391"
         stop-color="#f7b801"
         offset="100%" />
    </linearGradient>
    <linearGradient
       gradientUnits="userSpaceOnUse"
       gradientTransform="scale(1.0017538,0.9982493)"
       id="linearGradientSke8x21bd18f"
       y2="15.671071"
       x2="16.025042"
       y1="15.671071"
       x1="4.0854096">
      <stop
         id="stop1394"
         stop-color="#f7b801"
         offset="0%" />
      <stop
         id="stop1396"
         stop-color="#f7b801"
         offset="100%" />
    </linearGradient>
    <linearGradient
       gradientUnits="userSpaceOnUse"
       gradientTransform="scale(1.0018317,0.99817163)"
       id="linearGradientSke8x21bd18i"
       y2="32.465908"
       x2="45.819344"
       y1="32.465908"
       x1="33.874599">
      <stop
         id="stop1399"
         stop-color="#f7b801"
         offset="0%" />
      <stop
         id="stop1401"
         stop-color="#f7b801"
         offset="100%" />
    </linearGradient>
    <linearGradient
       gradientUnits="userSpaceOnUse"
       gradientTransform="scale(1.0023568,0.99764878)"
       id="linearGradientSke8x21bd18l"
       y2="15.687975"
       x2="45.802914"
       y1="15.687975"
       x1="33.859009">
      <stop
         id="stop1404"
         stop-color="#f7b801"
         offset="0%" />
      <stop
         id="stop1406"
         stop-color="#f7b801"
         offset="100%" />
    </linearGradient>
    <linearGradient
       gradientUnits="userSpaceOnUse"
       gradientTransform="scale(1.0020297,0.99797444)"
       id="linearGradientSke8x21bd18o"
       y2="32.46933"
       x2="16.023638"
       y1="32.46933"
       x1="4.0825682">
      <stop
         id="stop1409"
         stop-color="#f7b801"
         offset="0%" />
      <stop
         id="stop1411"
         stop-color="#f7b801"
         offset="100%" />
    </linearGradient>
    <linearGradient
       gradientUnits="userSpaceOnUse"
       gradientTransform="matrix(0.54706718,0,0,0.08634488,88.392031,26.231946)"
       id="linearGradientSke8x21bd124"
       y2="-91.949707"
       x2="94.880531"
       y1="-91.949707"
       x1="-91.51413">
      <stop
         id="stop1059"
         stop-color="#f35b04"
         offset="0%" />
      <stop
         id="stop1061"
         stop-color="#f35b04"
         offset="100%" />
    </linearGradient>
  </defs>
  <metadata
     id="metadata1023">
    <rdf:RDF>
      <cc:Work
         rdf:about="">
        <dc:format>image/svg+xml</dc:format>
        <dc:type
           rdf:resource="http://purl.org/dc/dcmitype/StillImage" />
        <dc:title></dc:title>
      </cc:Work>
    </rdf:RDF>
  </metadata>
  <g
     transform="matrix(0.26458333,0,0,0.26458333,-12.653207,-5.0624514e-8)"
     id="g1093">
    <rect
       style="opacity:1;fill:#e3e3e3;fill-opacity:1;stroke:none;stroke-width:0.733489;stroke-miterlimit:4;stroke-dasharray:none;stroke-opacity:1"
       id="rect1759-6-5-0-6-3-4-9-2"
       width="3.3237343"
       height="20.693701"
       x="52.570564"
       y="-100.27797"
       transform="matrix(0.99662289,-0.08211465,-0.46792701,-0.88376712,0,0)" />
    <rect
       style="opacity:1;fill:#e3e3e3;fill-opacity:1;stroke:none;stroke-width:0.733489;stroke-miterlimit:4;stroke-dasharray:none;stroke-opacity:1"
       id="rect1759-6-5-0-6-3-4-9"
       width="3.3237343"
       height="20.693701"
       x="86.994202"
       y="-85.334709"
       transform="matrix(0.99662289,-0.08211465,-0.46792701,-0.88376712,0,0)" />
    <rect
       style="opacity:1;fill:#e3e3e3;fill-opacity:1;stroke:none;stroke-width:0.733489;stroke-miterlimit:4;stroke-dasharray:none;stroke-opacity:1"
       id="rect1759-6-5-0-6-3-4"
       width="3.3237343"
       height="20.693701"
       x="-159.72453"
       y="-80.936073"
       transform="matrix(-0.99662289,-0.08211465,0.46792701,-0.88376712,0,0)" />
    <rect
       style="opacity:1;fill:#e3e3e3;fill-opacity:1;stroke:none;stroke-width:0.733489;stroke-miterlimit:4;stroke-dasharray:none;stroke-opacity:1"
       id="rect1759-6-5-0-6-3"
       width="3.3237343"
       height="20.693701"
       x="-125.58615"
       y="-65.716805"
       transform="matrix(-0.99662289,-0.08211465,0.46792701,-0.88376712,0,0)" />
    <rect
       style="opacity:1;fill:#e3e3e3;fill-opacity:1;stroke:none;stroke-width:0.733489;stroke-miterlimit:4;stroke-dasharray:none;stroke-opacity:1"
       id="rect1759-6-5-0-64"
       width="3.3237343"
       height="20.693701"
       x="84.754517"
       y="-91.078117"
       transform="matrix(0.3664315,0.93044503,-0.99956297,-0.02956133,0,0)" />
    <rect
       style="opacity:1;fill:#e3e3e3;fill-opacity:1;stroke:none;stroke-width:0.733489;stroke-miterlimit:4;stroke-dasharray:none;stroke-opacity:1"
       id="rect1759-6-5-0-79"
       width="3.3237343"
       height="20.693701"
       x="59.587891"
       y="-93.606758"
       transform="matrix(0.44104725,0.89748389,-0.99864681,0.05200526,0,0)" />
    <rect
       style="opacity:1;fill:#e3e3e3;fill-opacity:1;stroke:none;stroke-width:0.733489;stroke-miterlimit:4;stroke-dasharray:none;stroke-opacity:1"
       id="rect1759-6-5-0-6"
       width="3.3237343"
       height="20.693701"
       x="-27.182642"
       y="-176.8183"
       transform="matrix(-0.23683389,0.97155016,-0.7997953,-0.60027284,0,0)" />
    <rect
       style="opacity:1;fill:#e3e3e3;fill-opacity:1;stroke:none;stroke-width:0.733489;stroke-miterlimit:4;stroke-dasharray:none;stroke-opacity:1"
       id="rect1759-6-5-0-7"
       width="3.3237343"
       height="20.693701"
       x="-18.64888"
       y="-117.57278"
       transform="matrix(-0.34970732,0.936859,-0.72346006,-0.69036623,0,0)" />
    <rect
       style="opacity:1;fill:#e3e3e3;fill-opacity:1;stroke:none;stroke-width:0.725924;stroke-miterlimit:4;stroke-dasharray:none;stroke-opacity:1"
       id="rect1759-6-8"
       width="3.1816089"
       height="21.174482"
       x="109.65835"
       y="-74.080345"
       transform="matrix(0.97577786,-0.21876371,0.08396537,-0.99646867,0,0)" />
    <rect
       style="opacity:1;fill:#e3e3e3;fill-opacity:1;stroke:none;stroke-width:0.733489;stroke-miterlimit:4;stroke-dasharray:none;stroke-opacity:1"
       id="rect1759-6-5-0"
       width="3.3237343"
       height="20.693701"
       x="79.540733"
       y="-96.305435"
       transform="matrix(0.57544769,0.81783859,-0.9783601,0.20690943,0,0)" />
    <rect
       style="opacity:1;fill:#e3e3e3;fill-opacity:1;stroke:none;stroke-width:0.733489;stroke-miterlimit:4;stroke-dasharray:none;stroke-opacity:1"
       id="rect1759-6-5"
       width="3.3237343"
       height="20.693701"
       x="109.50135"
       y="-36.567802"
       transform="matrix(0.57544769,0.81783859,-0.9783601,0.20690943,0,0)" />
    <rect
       style="opacity:1;fill:#e3e3e3;fill-opacity:1;stroke:none;stroke-width:0.725924;stroke-miterlimit:4;stroke-dasharray:none;stroke-opacity:1"
       id="rect1759-6"
       width="3.1816089"
       height="21.174482"
       x="131.16283"
       y="-137.61974"
       transform="matrix(0.97577786,-0.21876371,0.08396537,-0.99646867,0,0)" />
    <path
       transform="matrix(2.9777,-0.052,0.052,2.9777,34.852472,-1.4042263)"
       id="path1548"
       style="opacity:1;fill:url(#linearGradientSke8x21bd189);stroke:none"
       d="m 24.995,0.909 c -3.297,0 -5.981,2.681 -5.981,5.981 0,3.299 2.685,5.981 5.981,5.981 3.3,0 5.983,-2.683 5.983,-5.981 10e-4,-3.3 -2.683,-5.981 -5.983,-5.981 z m 0,9.172 c -1.757,0 -3.19,-1.43 -3.19,-3.19 0,-1.758 1.434,-3.191 3.19,-3.191 1.759,0 3.191,1.433 3.191,3.191 0.001,1.76 -1.431,3.19 -3.191,3.19 z" />
    <path
       transform="matrix(2.9777,-0.052,0.052,2.9777,35.072564,-1.3279196)"
       id="path1564"
       style="opacity:1;fill:url(#linearGradientSke8x21bd18c);stroke:none"
       d="m 24.995,35.138 c -3.297,0 -5.981,2.685 -5.981,5.982 0,3.299 2.685,5.98 5.981,5.98 3.3,0 5.983,-2.682 5.983,-5.98 10e-4,-3.298 -2.683,-5.982 -5.983,-5.982 z m 0,9.17 c -1.757,0 -3.19,-1.43 -3.19,-3.188 0,-1.76 1.434,-3.192 3.19,-3.192 1.759,0 3.191,1.433 3.191,3.192 0.001,1.758 -1.431,3.188 -3.191,3.188 z" />
    <path
       transform="matrix(2.9777,-0.052,0.052,2.9777,34.827687,-1.3102631)"
       id="path1580"
       style="opacity:1;fill:url(#linearGradientSke8x21bd18f);stroke:none"
       d="m 7.146,20.84 c 0.894,0.503 1.905,0.763 2.924,0.763 v 0 c 2.159,0 4.16,-1.167 5.217,-3.051 1.617,-2.877 0.59,-6.53 -2.286,-8.145 C 10.219,8.84 6.417,9.92 4.858,12.692 3.242,15.566 4.269,19.222 7.146,20.84 Z m 0.146,-6.779 c 0.567,-1.004 1.633,-1.629 2.789,-1.629 0.541,0 1.079,0.141 1.555,0.41 1.534,0.863 2.081,2.81 1.221,4.344 -0.564,1.005 -1.63,1.628 -2.785,1.628 v 0 c -0.541,0 -1.08,-0.141 -1.554,-0.406 C 6.979,17.542 6.432,15.592 7.292,14.061 Z" />
    <path
       transform="matrix(2.9777,-0.052,0.052,2.9777,35.08943,-1.6670789)"
       id="path1596"
       style="opacity:1;fill:url(#linearGradientSke8x21bd18i);stroke:none"
       d="m 42.85,27.167 c -2.793,-1.569 -6.591,-0.479 -8.144,2.288 -0.779,1.396 -0.978,3.004 -0.544,4.544 0.431,1.542 1.438,2.819 2.827,3.603 0.895,0.502 1.903,0.766 2.927,0.766 2.162,0 4.162,-1.17 5.223,-3.053 1.613,-2.877 0.59,-6.53 -2.289,-8.148 z m -0.149,6.779 c -0.829,1.48 -2.855,2.061 -4.344,1.221 -0.742,-0.418 -1.277,-1.102 -1.509,-1.921 -0.232,-0.82 -0.129,-1.684 0.29,-2.426 0.563,-1.004 1.629,-1.631 2.788,-1.631 0.539,0 1.08,0.144 1.557,0.409 1.534,0.863 2.081,2.812 1.218,4.348 z" />
    <path
       transform="matrix(2.9777,-0.052,0.052,2.9777,34.954095,-1.7847857)"
       id="path1612"
       style="opacity:1;fill:url(#linearGradientSke8x21bd18l);stroke:none"
       d="m 36.998,10.413 c -1.392,0.781 -2.397,2.06 -2.833,3.596 -0.434,1.539 -0.238,3.15 0.541,4.544 1.058,1.887 3.061,3.056 5.223,3.056 1.019,0 2.033,-0.264 2.923,-0.766 1.393,-0.78 2.396,-2.058 2.834,-3.596 0.431,-1.539 0.238,-3.154 -0.541,-4.545 C 43.589,9.931 39.788,8.85 36.998,10.413 Z m 5.998,6.08 c -0.23,0.817 -0.764,1.5 -1.51,1.917 -0.477,0.269 -1.018,0.41 -1.558,0.41 -1.155,0 -2.222,-0.624 -2.787,-1.629 -0.416,-0.743 -0.52,-1.606 -0.29,-2.428 0.23,-0.817 0.767,-1.499 1.509,-1.916 0.474,-0.267 1.014,-0.409 1.559,-0.409 1.155,0 2.224,0.628 2.787,1.627 0.419,0.746 0.523,1.606 0.29,2.428 z" />
    <path
       transform="matrix(2.9777,-0.052,0.052,2.9777,34.961245,-2.2191284)"
       id="path1628"
       style="opacity:1;fill:url(#linearGradientSke8x21bd18o);stroke:none"
       d="m 7.146,27.164 c -1.392,0.782 -2.397,2.06 -2.828,3.598 -0.434,1.539 -0.242,3.153 0.541,4.547 1.058,1.883 3.058,3.053 5.226,3.053 1.018,0 2.026,-0.263 2.921,-0.76 2.875,-1.616 3.899,-5.272 2.286,-8.146 -1.556,-2.772 -5.355,-3.854 -8.146,-2.292 z m 4.49,8.001 c -0.477,0.268 -1.015,0.405 -1.555,0.405 -1.155,0 -2.226,-0.625 -2.792,-1.626 -0.416,-0.744 -0.52,-1.605 -0.291,-2.428 0.229,-0.82 0.764,-1.504 1.511,-1.918 0.474,-0.267 1.011,-0.409 1.552,-0.409 1.158,0 2.226,0.627 2.793,1.631 0.863,1.536 0.315,3.484 -1.218,4.345 z" />
    <circle
       style="opacity:1;fill:#f35b04;fill-opacity:1;stroke:none;stroke-width:0.9;stroke-miterlimit:4;stroke-dasharray:none;stroke-opacity:1"
       id="path2055-7"
       cx="119.17427"
       cy="82.426392"
       r="6" />
    <circle
       style="opacity:1;fill:#f35b04;fill-opacity:1;stroke:none;stroke-width:0.9;stroke-miterlimit:4;stroke-dasharray:none;stroke-opacity:1"
       id="path2055-0"
       cx="127.29007"
       cy="67.443359"
       r="6" />
    <circle
       style="opacity:1;fill:#f35b04;fill-opacity:1;stroke:none;stroke-width:0.9;stroke-miterlimit:4;stroke-dasharray:none;stroke-opacity:1"
       id="path2055-0-9"
       cx="119.59045"
       cy="51.83604"
       r="6" />
    <circle
       style="opacity:1;fill:#f35b04;fill-opacity:1;stroke:none;stroke-width:0.9;stroke-miterlimit:4;stroke-dasharray:none;stroke-opacity:1"
       id="path2055-0-5"
       cx="92.953979"
       cy="65.67453"
       r="6" />
    <circle
       style="opacity:1;fill:#f35b04;fill-opacity:1;stroke:none;stroke-width:0.9;stroke-miterlimit:4;stroke-dasharray:none;stroke-opacity:1"
       id="path2055-0-4"
       cx="101.48596"
       cy="51.3158"
       r="6" />
    <circle
       style="opacity:1;fill:#f35b04;fill-opacity:1;stroke:none;stroke-width:0.9;stroke-miterlimit:4;stroke-dasharray:none;stroke-opacity:1"
       id="path2055-7-0"
       cx="100.27626"
       cy="81.526649"
       r="6" />
  </g>
  <text
     id="text56"
     y="26.286341"
     x="35.793144"
     style="font-style:normal;font-weight:normal;font-size:21.926px;line-height:1.25;font-family:sans-serif;letter-spacing:0px;word-spacing:0px;fill:#f35b04;fill-opacity:1;stroke:none;stroke-width:0.548158"
     xml:space="preserve"><tspan
       style="font-style:normal;font-variant:normal;font-weight:normal;font-stretch:normal;font-family:Montserrat;-inkscape-font-specification:Montserrat;fill:#f35b04;fill-opacity:1;stroke-width:0.548158"
       y="26.286341"
       x="35.793144"
       id="tspan54">Molstruct</tspan></text>
</svg>
